<svg xmlns="http://www.w3.org/2000/svg" width="23.174" height="23.174" viewBox="0 0 23.174 23.174">
  <path id="Icon_awesome-skype" data-name="Icon awesome-skype" d="M21.974,16.106a11.26,11.26,0,0,0,.243-2.266A10.618,10.618,0,0,0,11.595,3.218a10.937,10.937,0,0,0-2.266.243,5.787,5.787,0,0,0-8.123,8.113A11.261,11.261,0,0,0,.962,13.84,10.618,10.618,0,0,0,11.585,24.462a10.937,10.937,0,0,0,2.266-.243,5.788,5.788,0,0,0,9.324-4.589,5.707,5.707,0,0,0-1.2-3.523ZM11.905,20.84c-3.394,0-6.235-1.511-6.235-3.363A1.454,1.454,0,0,1,7.2,15.894c1.614,0,1.764,2.323,4.558,2.323,1.33,0,2.189-.59,2.189-1.361,0-.968-.828-1.118-2.173-1.449-3.234-.8-6.095-1.138-6.095-4.512,0-3.063,3.032-4.2,5.645-4.2,2.851,0,5.733,1.133,5.733,2.866a1.559,1.559,0,0,1-1.568,1.645c-1.464,0-1.511-1.733-3.88-1.733-1.33,0-2.173.362-2.173,1.164,0,1.024,1.076,1.128,3.575,1.707,2.142.481,4.693,1.387,4.693,4.015,0,3.058-2.954,4.475-5.795,4.475Z" transform="translate(0 -2.25)" fill="#8a0708"/>
</svg>
