<svg xmlns="http://www.w3.org/2000/svg" width="25.61" height="20.8" viewBox="0 0 25.61 20.8">
  <path id="Icon_awesome-twitter" data-name="Icon awesome-twitter" d="M22.978,8.565c.016.227.016.455.016.683A14.831,14.831,0,0,1,8.06,24.181,14.833,14.833,0,0,1,0,21.825a10.858,10.858,0,0,0,1.268.065,10.512,10.512,0,0,0,6.516-2.242,5.258,5.258,0,0,1-4.908-3.64,6.619,6.619,0,0,0,.991.081,5.551,5.551,0,0,0,1.381-.179A5.249,5.249,0,0,1,1.04,10.758v-.065a5.286,5.286,0,0,0,2.372.666,5.257,5.257,0,0,1-1.625-7.02A14.919,14.919,0,0,0,12.61,9.832a5.925,5.925,0,0,1-.13-1.2,5.254,5.254,0,0,1,9.084-3.591A10.334,10.334,0,0,0,24.9,3.771a5.235,5.235,0,0,1-2.308,2.892,10.522,10.522,0,0,0,3.022-.812,11.283,11.283,0,0,1-2.632,2.714Z" transform="translate(0 -3.381)" fill="#8a0708"/>
</svg>
